<?xml version="1.0" encoding="UTF-8" standalone="no"?>
<svg width="200px" height="82px" viewBox="0 0 200 82" version="1.1" xmlns="http://www.w3.org/2000/svg" xmlns:xlink="http://www.w3.org/1999/xlink" xmlns:sketch="http://www.bohemiancoding.com/sketch/ns">
    <!-- Generator: Sketch 3.4.3 (16044) - http://www.bohemiancoding.com/sketch -->
    <title>logo-vitens</title>
    <desc>Created with Sketch.</desc>
    <defs>
        <linearGradient x1="0.333903134%" y1="49.7897059%" x2="100.185755%" y2="49.7897059%" id="linearGradient-1">
            <stop stop-color="#1DBADF" offset="0%"></stop>
            <stop stop-color="#164194" offset="100%"></stop>
        </linearGradient>
    </defs>
    <g id="Page-1" stroke="none" stroke-width="1" fill="none" fill-rule="evenodd" sketch:type="MSPage">
        <g id="logo-vitens" sketch:type="MSLayerGroup">
            <g id="pay-off_2_" transform="translate(55.782313, 70.748299)" fill="url(#linearGradient-1)" sketch:type="MSShapeGroup">
                <path d="M141.768707,1.36054422 L141.768707,6.66666667 L141.768707,6.66666667 L139.455782,1.36054422 L137.55102,1.36054422 L137.55102,10.2040816 L139.047619,10.2040816 L139.047619,4.48979592 L139.047619,4.48979592 L141.632653,10.2040816 L143.265306,10.2040816 L143.265306,1.36054422 L141.768707,1.36054422 L141.768707,1.36054422 Z M131.972789,1.36054422 L131.972789,10.2040816 L136.734694,10.2040816 L136.734694,8.70748299 L133.605442,8.70748299 L133.605442,6.39455782 L135.918367,6.39455782 L135.918367,4.89795918 L133.605442,4.89795918 L133.605442,2.85714286 L136.598639,2.85714286 L136.598639,1.36054422 L131.972789,1.36054422 L131.972789,1.36054422 Z M129.387755,1.36054422 L127.210884,5.03401361 L127.210884,5.03401361 L127.210884,1.36054422 L125.578231,1.36054422 L125.578231,10.2040816 L127.210884,10.2040816 L127.210884,7.4829932 L127.891156,6.53061224 L129.659864,10.2040816 L131.564626,10.2040816 L128.979592,4.89795918 L131.292517,1.36054422 L129.387755,1.36054422 L129.387755,1.36054422 Z M120.680272,2.85714286 L121.496599,2.85714286 C122.312925,2.85714286 122.721088,3.26530612 122.721088,4.08163265 C122.721088,4.89795918 122.312925,5.30612245 121.496599,5.30612245 L120.680272,5.30612245 L120.680272,2.85714286 L120.680272,2.85714286 Z M118.911565,1.36054422 L118.911565,10.2040816 L120.544218,10.2040816 L120.544218,6.53061224 L121.360544,6.53061224 L122.857143,10.2040816 L124.62585,10.2040816 L122.993197,6.2585034 C123.945578,5.85034014 124.353741,5.17006803 124.353741,3.94557823 C124.353741,2.31292517 123.401361,1.2244898 121.360544,1.2244898 L118.911565,1.2244898 L118.911565,1.36054422 Z M113.333333,1.36054422 L113.333333,10.2040816 L118.095238,10.2040816 L118.095238,8.70748299 L114.965986,8.70748299 L114.965986,6.39455782 L117.278912,6.39455782 L117.278912,4.89795918 L114.965986,4.89795918 L114.965986,2.85714286 L117.959184,2.85714286 L117.959184,1.36054422 L113.333333,1.36054422 L113.333333,1.36054422 Z M111.156463,1.36054422 L109.931973,7.21088435 L109.931973,7.21088435 L108.707483,1.36054422 L107.07483,1.36054422 L105.85034,7.21088435 L105.85034,7.21088435 L104.62585,1.36054422 L102.993197,1.36054422 L104.897959,10.2040816 L106.530612,10.2040816 L107.891156,4.08163265 L107.891156,4.08163265 L109.115646,10.2040816 L110.748299,10.2040816 L112.653061,1.36054422 L111.156463,1.36054422 L111.156463,1.36054422 Z M94.9659864,1.36054422 L94.9659864,10.2040816 L99.7278912,10.2040816 L99.7278912,8.70748299 L96.5986395,8.70748299 L96.5986395,6.39455782 L98.9115646,6.39455782 L98.9115646,4.89795918 L96.5986395,4.89795918 L96.5986395,2.85714286 L99.5918367,2.85714286 L99.5918367,1.36054422 L94.9659864,1.36054422 L94.9659864,1.36054422 Z M92.244898,1.36054422 L92.244898,8.02721088 C92.244898,8.70748299 92.1088435,8.84353741 91.292517,8.84353741 L90.8843537,8.84353741 L90.8843537,10.3401361 L91.7006803,10.3401361 C93.1972789,10.3401361 94.0136054,9.52380952 94.0136054,8.29931973 L94.0136054,1.36054422 L92.244898,1.36054422 L92.244898,1.36054422 Z M83.9455782,2.85714286 L84.7619048,2.85714286 C85.5782313,2.85714286 85.9863946,3.26530612 85.9863946,4.08163265 C85.9863946,4.89795918 85.5782313,5.30612245 84.7619048,5.30612245 L83.9455782,5.30612245 L83.9455782,2.85714286 L83.9455782,2.85714286 Z M82.1768707,1.36054422 L82.1768707,10.2040816 L83.8095238,10.2040816 L83.8095238,6.53061224 L84.6258503,6.53061224 L86.122449,10.2040816 L87.8911565,10.2040816 L86.2585034,6.2585034 C87.2108844,5.85034014 87.6190476,5.17006803 87.6190476,3.94557823 C87.6190476,2.31292517 86.6666667,1.2244898 84.6258503,1.2244898 L82.1768707,1.2244898 L82.1768707,1.36054422 Z M77.414966,7.61904762 L77.414966,4.08163265 C77.414966,3.1292517 77.8231293,2.85714286 78.5034014,2.85714286 C79.1836735,2.85714286 79.5918367,3.1292517 79.5918367,4.08163265 L79.5918367,7.75510204 C79.5918367,8.70748299 79.1836735,8.97959184 78.5034014,8.97959184 C77.8231293,8.84353741 77.414966,8.57142857 77.414966,7.61904762 L77.414966,7.61904762 Z M0,1.49659864 L0,10.3401361 L4.48979592,10.3401361 L4.48979592,8.84353741 L1.76870748,8.84353741 L1.76870748,1.49659864 L0,1.49659864 L0,1.49659864 Z M8.02721088,3.40136054 L8.02721088,3.40136054 L8.84353741,6.93877551 L7.21088435,6.93877551 L8.02721088,3.40136054 L8.02721088,3.40136054 Z M6.93877551,1.49659864 L4.76190476,10.3401361 L6.39455782,10.3401361 L6.93877551,8.43537415 L9.25170068,8.43537415 L9.65986395,10.3401361 L11.292517,10.3401361 L9.11564626,1.49659864 L6.93877551,1.49659864 L6.93877551,1.49659864 Z M14.829932,3.40136054 L14.829932,3.40136054 L15.6462585,6.93877551 L14.0136054,6.93877551 L14.829932,3.40136054 L14.829932,3.40136054 Z M13.7414966,1.49659864 L11.5646259,10.3401361 L13.1972789,10.3401361 L13.7414966,8.43537415 L16.0544218,8.43537415 L16.462585,10.3401361 L18.0952381,10.3401361 L15.9183673,1.49659864 L13.7414966,1.49659864 L13.7414966,1.49659864 Z M17.414966,1.49659864 L17.414966,2.99319728 L19.4557823,2.99319728 L19.4557823,10.3401361 L21.0884354,10.3401361 L21.0884354,2.99319728 L23.1292517,2.99319728 L23.1292517,1.49659864 L17.414966,1.49659864 L17.414966,1.49659864 Z M34.1496599,1.49659864 L32.9251701,7.34693878 L32.9251701,7.34693878 L31.7006803,1.49659864 L30.0680272,1.49659864 L28.8435374,7.34693878 L28.8435374,7.34693878 L27.6190476,1.49659864 L25.9863946,1.49659864 L27.8911565,10.3401361 L29.5238095,10.3401361 L30.8843537,4.21768707 L30.8843537,4.21768707 L32.1088435,10.3401361 L33.7414966,10.3401361 L35.6462585,1.49659864 L34.1496599,1.49659864 L34.1496599,1.49659864 Z M38.5034014,3.40136054 L38.5034014,3.40136054 L39.3197279,6.93877551 L37.6870748,6.93877551 L38.5034014,3.40136054 L38.5034014,3.40136054 Z M37.414966,1.49659864 L35.2380952,10.3401361 L36.8707483,10.3401361 L37.414966,8.43537415 L39.7278912,8.43537415 L40.1360544,10.3401361 L41.7687075,10.3401361 L39.5918367,1.49659864 L37.414966,1.49659864 L37.414966,1.49659864 Z M41.2244898,1.49659864 L41.2244898,2.99319728 L43.2653061,2.99319728 L43.2653061,10.3401361 L44.8979592,10.3401361 L44.8979592,2.99319728 L46.9387755,2.99319728 L46.9387755,1.49659864 L41.2244898,1.49659864 L41.2244898,1.49659864 Z M47.4829932,1.49659864 L47.4829932,10.3401361 L52.244898,10.3401361 L52.244898,8.84353741 L49.1156463,8.84353741 L49.1156463,6.53061224 L51.4285714,6.53061224 L51.4285714,5.03401361 L49.1156463,5.03401361 L49.1156463,2.99319728 L52.1088435,2.99319728 L52.1088435,1.49659864 L47.4829932,1.49659864 L47.4829932,1.49659864 Z M54.6938776,2.85714286 L55.5102041,2.85714286 C56.3265306,2.85714286 56.7346939,3.26530612 56.7346939,4.08163265 C56.7346939,4.89795918 56.3265306,5.30612245 55.5102041,5.30612245 L54.6938776,5.30612245 L54.6938776,2.85714286 L54.6938776,2.85714286 Z M53.0612245,1.49659864 L53.0612245,10.3401361 L54.6938776,10.3401361 L54.6938776,6.80272109 L55.5102041,6.80272109 L57.0068027,10.4761905 L58.7755102,10.4761905 L57.1428571,6.53061224 C58.0952381,6.12244898 58.5034014,5.44217687 58.5034014,4.21768707 C58.5034014,2.58503401 57.5510204,1.49659864 55.5102041,1.49659864 L53.0612245,1.49659864 L53.0612245,1.49659864 Z M67.3469388,1.36054422 L65.8503401,7.75510204 L65.8503401,7.75510204 L64.3537415,1.36054422 L62.7210884,1.36054422 L65.0340136,10.2040816 L66.9387755,10.2040816 L69.2517007,1.36054422 L67.3469388,1.36054422 L67.3469388,1.36054422 Z M70.8843537,7.61904762 L70.8843537,4.08163265 C70.8843537,3.1292517 71.292517,2.85714286 71.9727891,2.85714286 C72.6530612,2.85714286 73.0612245,3.1292517 73.0612245,4.08163265 L73.0612245,7.75510204 C73.0612245,8.70748299 72.6530612,8.97959184 71.9727891,8.97959184 C71.292517,8.84353741 70.8843537,8.57142857 70.8843537,7.61904762 L70.8843537,7.61904762 Z M69.2517007,4.21768707 L69.2517007,7.34693878 C69.2517007,9.52380952 70.3401361,10.3401361 72.1088435,10.3401361 C73.7414966,10.3401361 74.9659864,9.52380952 74.9659864,7.34693878 L74.9659864,4.21768707 C74.9659864,2.04081633 73.877551,1.2244898 72.1088435,1.2244898 C70.3401361,1.2244898 69.2517007,2.04081633 69.2517007,4.21768707 L69.2517007,4.21768707 Z M75.7823129,4.21768707 L75.7823129,7.34693878 C75.7823129,9.52380952 76.8707483,10.3401361 78.6394558,10.3401361 C80.2721088,10.3401361 81.4965986,9.52380952 81.4965986,7.34693878 L81.4965986,4.21768707 C81.4965986,2.04081633 80.4081633,1.2244898 78.6394558,1.2244898 C76.8707483,1.2244898 75.7823129,2.04081633 75.7823129,4.21768707 L75.7823129,4.21768707 Z" id="Shape"></path>
            </g>
            <path d="M151.428571,24.7619048 C150.47619,23.9455782 151.70068,22.8571429 152.244898,22.3129252 C153.333333,21.3605442 155.510204,20.2721088 156.190476,19.4557823 C156.598639,19.047619 156.326531,18.6394558 155.782313,18.2312925 C151.70068,15.6462585 151.292517,14.1496599 148.027211,12.9251701 C147.210884,12.6530612 145.034014,12.3809524 143.129252,14.1496599 C141.360544,15.7823129 140.136054,16.7346939 139.183673,17.414966 C138.77551,17.6870748 138.503401,17.8231293 137.823129,17.6870748 C136.598639,17.414966 134.421769,16.462585 133.469388,17.1428571 C132.653061,17.5510204 130.068027,22.0408163 128.843537,21.4965986 C127.755102,20.952381 128.843537,19.3197279 128.979592,17.2789116 C129.115646,15.3741497 128.435374,15.2380952 127.346939,14.9659864 C125.986395,14.6938776 117.142857,13.0612245 115.782313,12.6530612 C114.421769,12.244898 112.108844,11.9727891 109.795918,15.2380952 C108.435374,17.1428571 106.666667,19.7278912 105.578231,21.3605442 C102.44898,16.8707483 91.9727891,16.1904762 86.8027211,20.2721088 C88.4353741,15.9183673 90.3401361,11.0204082 91.8367347,9.3877551 C92.9251701,8.16326531 93.877551,10.6122449 92.7891156,13.877551 C92.244898,15.3741497 96.3265306,14.4217687 96.0544218,6.80272109 C95.7823129,1.36054422 94.1496599,0.952380952 91.1564626,1.49659864 C88.1632653,2.04081633 85.170068,1.2244898 84.0816327,0.952380952 C82.9931973,0.544217687 80.952381,0.272108844 78.9115646,2.44897959 C77.1428571,4.48979592 75.6462585,8.84353741 74.4217687,10.0680272 C72.244898,9.65986395 64.8979592,5.17006803 63.2653061,10.6122449 C61.4965986,10.4761905 57.0068027,10.2040816 55.9183673,10.2040816 C54.829932,10.2040816 53.0612245,10.3401361 51.9727891,12.5170068 L44.7619048,12.5170068 C43.4013605,12.5170068 42.0408163,13.0612245 41.4965986,14.2857143 C41.2244898,14.9659864 40.4081633,17.1428571 39.4557823,19.4557823 C34.5578231,5.57823129 15.1020408,1.63265306 1.63265306,4.48979592 C-0.136054422,4.89795918 0.408163265,5.30612245 1.08843537,5.44217687 C7.61904762,6.53061224 15.2380952,9.93197279 20,21.6326531 C20.952381,23.9455782 29.1156463,45.170068 29.7959184,46.8027211 C30.8843537,49.3877551 31.5646259,50.3401361 34.4217687,50.3401361 L43.4013605,50.3401361 C46.2585034,50.3401361 46.5306122,49.6598639 47.4829932,47.6190476 C48.2993197,45.7142857 48.8435374,43.9455782 49.1156463,43.537415 C49.2517007,43.4013605 49.2517007,43.4013605 49.2517007,43.537415 C49.3877551,44.2176871 49.3877551,47.3469388 49.7959184,50.3401361 C50.0680272,52.5170068 51.0204082,52.9251701 52.1088435,53.3333333 C53.6054422,54.0136054 55.6462585,54.0136054 57.0068027,53.877551 C58.6394558,53.6054422 59.5918367,50.4761905 60,49.6598639 C60.1360544,49.3877551 60.1360544,49.5238095 60.1360544,49.6598639 C60.1360544,50.2040816 60.2721088,51.7006803 60.5442177,52.6530612 C60.6802721,53.0612245 60.952381,53.3333333 61.3605442,53.4693878 C62.0408163,53.7414966 62.585034,53.877551 63.6734694,53.877551 C64.3537415,53.877551 64.2176871,54.5578231 64.3537415,55.5102041 C64.3537415,56.462585 64.4897959,57.2789116 65.5782313,57.6870748 C68.4353741,58.9115646 74.6938776,60.5442177 77.8231293,52.5170068 C78.9115646,49.7959184 80,48.4353741 80.5442177,47.8911565 C80.8163265,47.6190476 81.0884354,47.6190476 81.2244898,47.755102 C81.9047619,48.1632653 83.4013605,48.9795918 85.8503401,49.6598639 C90.6122449,51.0204082 93.7414966,50.4761905 97.2789116,49.9319728 C95.5102041,52.9251701 100.544218,55.7823129 106.122449,55.1020408 C110.612245,54.5578231 113.741497,50.2040816 114.557823,49.1156463 C116.326531,46.9387755 120.952381,49.7959184 123.945578,49.5238095 C121.496599,53.4693878 122.040816,63.6734694 131.428571,67.8911565 C131.564626,68.0272109 131.70068,67.8911565 131.70068,67.755102 C129.52381,49.1156463 151.020408,54.4217687 154.693878,39.1836735 C156.598639,31.9727891 153.605442,26.6666667 151.428571,24.7619048 L151.428571,24.7619048 Z" id="omloop_2_" fill="#164194" sketch:type="MSShapeGroup"></path>
            <g id="Vitens_2_" transform="translate(24.489796, 13.605442)" fill="#FFFFFF" sketch:type="MSShapeGroup">
                <path d="M34.4217687,0.136054422 C33.4693878,0.136054422 32.6530612,0.408163265 32.1088435,1.08843537 C31.4285714,1.76870748 31.1564626,2.58503401 31.1564626,3.53741497 C31.1564626,4.48979592 31.4285714,5.30612245 32.1088435,5.98639456 C32.7891156,6.66666667 33.6054422,6.93877551 34.4217687,6.93877551 C35.3741497,6.93877551 36.1904762,6.66666667 36.8707483,5.98639456 C37.5510204,5.30612245 37.8231293,4.48979592 37.8231293,3.53741497 C37.8231293,2.58503401 37.5510204,1.76870748 36.8707483,1.08843537 C36.1904762,0.408163265 35.3741497,0.136054422 34.4217687,0.136054422 L34.4217687,0.136054422 Z" id="Shape"></path>
                <rect id="Rectangle-path" x="31.292517" y="9.79591837" width="6.2585034" height="20.4081633"></rect>
                <path d="M15.3741497,21.4965986 L8.16326531,2.85714286 L0.952380952,2.85714286 L11.7006803,30.3401361 L17.5510204,30.3401361 L27.755102,2.85714286 L21.9047619,2.85714286 L15.3741497,21.4965986 Z" id="Shape"></path>
                <path d="M96.7346939,9.3877551 C94.9659864,9.3877551 93.4693878,9.79591837 92.244898,10.4761905 C91.4285714,11.0204082 90.6122449,11.5646259 90.0680272,12.244898 L89.9319728,9.93197279 L83.9455782,9.93197279 L83.9455782,30.3401361 L90.2040816,30.3401361 L90.2040816,15.7823129 C90.6122449,15.3741497 91.0204082,15.1020408 91.8367347,14.6938776 C92.5170068,14.4217687 93.1972789,14.2857143 94.1496599,14.2857143 C94.9659864,14.2857143 95.6462585,14.4217687 96.0544218,14.829932 C96.5986395,15.2380952 96.8707483,16.0544218 96.8707483,16.7346939 L96.8707483,30.2040816 L102.993197,30.2040816 L102.993197,15.9183673 C102.993197,13.7414966 102.44898,12.1088435 101.360544,10.8843537 C100.136054,9.93197279 98.6394558,9.3877551 96.7346939,9.3877551 L96.7346939,9.3877551 Z" id="Shape"></path>
                <path d="M118.639456,17.6870748 C117.414966,17.1428571 116.598639,17.0068027 115.37415,16.5986395 C113.469388,16.0544218 112.517007,15.7823129 112.517007,14.6938776 C112.517007,14.5578231 112.653061,13.7414966 113.877551,13.3333333 C114.829932,13.0612245 115.646259,13.0612245 116.326531,13.0612245 C118.911565,13.1972789 120.816327,14.4217687 120.816327,14.5578231 L121.088435,14.829932 L122.857143,11.4285714 L122.585034,11.292517 C122.44898,11.1564626 119.455782,9.3877551 115.646259,9.3877551 C113.061224,9.3877551 110.884354,9.93197279 109.52381,11.1564626 C108.163265,12.244898 107.482993,13.6054422 107.482993,15.2380952 C107.482993,18.2312925 109.115646,20.1360544 112.517007,21.3605442 C112.789116,21.4965986 113.333333,21.6326531 113.605442,21.7687075 C116.190476,22.585034 117.823129,23.1292517 117.823129,24.6258503 C117.823129,25.3061224 117.55102,25.8503401 116.870748,26.2585034 C116.190476,26.6666667 114.965986,26.9387755 113.333333,26.8027211 C111.292517,26.5306122 108.979592,25.0340136 109.115646,25.170068 L108.843537,24.8979592 L106.802721,28.2993197 L107.07483,28.4353741 C107.210884,28.5714286 110.204082,30.7482993 114.421769,30.7482993 L114.421769,30.7482993 L114.421769,30.7482993 C117.278912,30.7482993 119.591837,30.2040816 121.22449,28.9795918 C122.857143,27.755102 123.673469,25.9863946 123.673469,23.9455782 C123.537415,20.952381 121.904762,18.9115646 118.639456,17.6870748 L118.639456,17.6870748 Z" id="Shape"></path>
                <path d="M55.5102041,25.5782313 C55.3741497,25.7142857 54.4217687,26.2585034 53.4693878,26.2585034 C52.9251701,26.2585034 52.1088435,26.2585034 51.7006803,25.8503401 C51.292517,25.4421769 51.1564626,24.8979592 51.1564626,23.6734694 L51.1564626,13.877551 L56.462585,13.877551 L56.462585,10.2040816 L51.1564626,10.2040816 L51.1564626,3.67346939 L47.4829932,3.67346939 L47.4829932,3.94557823 C46.5306122,7.89115646 45.8503401,9.65986395 42.8571429,10.4761905 L42.585034,10.6122449 L42.585034,14.0136054 L44.8979592,14.0136054 L44.8979592,23.537415 C44.8979592,29.2517007 48.5714286,30.6122449 51.1564626,30.6122449 C53.4693878,30.6122449 55.9183673,29.7959184 57.1428571,28.707483 L57.414966,28.5714286 L55.9183673,25.5782313 C55.9183673,25.3061224 55.6462585,25.4421769 55.5102041,25.5782313 L55.5102041,25.5782313 Z" id="Shape"></path>
                <path d="M77.6870748,24.4897959 L77.414966,24.6258503 C76.462585,25.3061224 74.1496599,26.3945578 71.1564626,26.3945578 L71.1564626,26.3945578 C69.6598639,26.3945578 68.4353741,25.9863946 67.6190476,25.170068 C66.8027211,24.4897959 66.2585034,23.1292517 66.2585034,21.2244898 L79.4557823,21.2244898 L79.4557823,19.047619 C79.4557823,16.0544218 78.6394558,13.7414966 77.0068027,11.8367347 C75.3741497,9.93197279 73.0612245,9.11564626 69.9319728,9.11564626 C66.8027211,9.11564626 64.2176871,10.0680272 62.585034,12.1088435 C60.952381,14.0136054 60,16.462585 60,19.3197279 L60,20.952381 L60,21.3605442 C60.1360544,24.2176871 61.0884354,26.5306122 62.7210884,28.1632653 C64.4897959,29.7959184 67.0748299,30.7482993 70.0680272,30.7482993 L71.0204082,30.7482993 L71.4285714,30.7482993 L71.4285714,30.7482993 C75.9183673,30.4761905 78.3673469,28.707483 79.047619,28.1632653 L79.3197279,28.0272109 L77.6870748,24.4897959 L77.6870748,24.4897959 Z M67.4829932,14.1496599 C68.1632653,13.3333333 68.9795918,13.0612245 69.9319728,13.0612245 C71.0204082,13.0612245 71.8367347,13.4693878 72.5170068,14.1496599 C73.1972789,14.829932 73.4693878,16.0544218 73.6054422,17.6870748 L66.2585034,17.6870748 C66.3945578,16.1904762 66.8027211,14.9659864 67.4829932,14.1496599 L67.4829932,14.1496599 Z" id="Shape"></path>
            </g>
        </g>
    </g>
</svg>